<svg xmlns="http://www.w3.org/2000/svg" width="1290" height="730" viewBox="0 0 1290 730"><rect width="100%" height="100%" fill="#DDDDDD"/><path fill="#999999" d="M313.44 405.615h19.63v13.97h-60.4v-13.97h22.12v-63.64q0-3.78.23-7.78l-15.71 13.14q-1.36 1.05-2.68 1.32-1.32.26-2.49.04-1.17-.23-2.07-.8-.91-.56-1.36-1.24l-5.89-8.08 33.29-28.31h15.33zm75.12-3.39h28.01q3.02 0 4.8 1.69 1.77 1.7 1.77 4.5v11.17h-74.9v-6.19q0-1.89.8-3.96.79-2.08 2.53-3.74l33.14-33.22q4.15-4.23 7.44-8.08 3.28-3.85 5.47-7.63 2.19-3.77 3.36-7.66t1.17-8.19q0-3.93-1.13-6.91t-3.21-5.02-4.98-3.06q-2.91-1.02-6.53-1.02-3.33 0-6.16.95-2.83.94-5.02 2.64t-3.7 3.96q-1.51 2.27-2.26 4.99-1.29 3.47-3.32 4.6-2.04 1.13-5.89.53l-9.82-1.74q1.13-7.85 4.38-13.78 3.25-5.92 8.12-9.89 4.87-3.96 11.17-5.96 6.31-2 13.55-2 7.55 0 13.82 2.23 6.27 2.22 10.72 6.3 4.46 4.08 6.95 9.82 2.49 5.73 2.49 12.76 0 6.04-1.78 11.17-1.77 5.13-4.75 9.81-2.98 4.69-6.99 9.06-4 4.38-8.38 8.91l-24.61 25.14q3.55-1.05 7.06-1.62 3.51-.56 6.68-.56m66.44-59.05q0 9.14 4.72 13.93 4.72 4.8 13.4 4.8 4.53 0 8.08-1.44 3.55-1.43 5.96-3.92 2.42-2.49 3.67-5.89 1.24-3.4 1.24-7.32 0-4.46-1.36-7.97t-3.85-5.93q-2.49-2.41-5.92-3.7-3.44-1.28-7.52-1.28-4.22 0-7.62 1.4-3.4 1.39-5.82 3.89-2.41 2.49-3.69 5.92-1.29 3.44-1.29 7.51m-9.13 76.41 33.9-42.36q1.28-1.58 2.41-3.09t2.19-3.02q-3.77 2.42-8.3 3.66-4.53 1.25-9.52 1.25-5.66 0-11.1-1.97-5.43-1.96-9.66-5.92-4.23-3.97-6.83-9.82-2.61-5.85-2.61-13.7 0-7.33 2.72-13.74 2.72-6.42 7.63-11.25 4.9-4.83 11.77-7.63 6.88-2.79 15.18-2.79 8.38 0 15.06 2.64t11.4 7.4 7.25 11.4 2.53 14.57q0 5.06-.87 9.59t-2.45 8.72q-1.59 4.19-3.85 8.19-2.27 4-5.06 7.93l-24.99 35.64q-1.28 1.81-3.85 3.05-2.57 1.25-5.82 1.25zm155.6-54.59q0 14.27-3.06 24.81-3.05 10.53-8.45 17.4t-12.76 10.23-15.89 3.36q-8.54 0-15.82-3.36-7.29-3.36-12.65-10.23t-8.38-17.4q-3.02-10.54-3.02-24.81 0-14.34 3.02-24.84 3.02-10.49 8.38-17.36t12.65-10.23q7.28-3.36 15.82-3.36 8.53 0 15.89 3.36t12.76 10.23 8.45 17.36q3.06 10.5 3.06 24.84m-19.25 0q0-11.85-1.74-19.63-1.73-7.77-4.64-12.38-2.91-4.6-6.68-6.45-3.78-1.85-7.85-1.85-4.01 0-7.74 1.85-3.74 1.85-6.61 6.45-2.87 4.61-4.57 12.38-1.7 7.78-1.7 19.63 0 11.86 1.7 19.63 1.7 7.78 4.57 12.39 2.87 4.6 6.61 6.45 3.73 1.85 7.74 1.85 4.07 0 7.85-1.85 3.77-1.85 6.68-6.45 2.91-4.61 4.64-12.39 1.74-7.77 1.74-19.63m139.15 29.6-9.89 9.74-25.6-25.6-25.82 25.75-9.89-9.74 25.82-25.9-24.61-24.61 9.81-9.81 24.62 24.61 24.46-24.46 9.96 9.81-24.53 24.54zm51.86-84.18h75.43v8.08q0 3.62-.76 5.85-.75 2.22-1.51 3.73l-41.37 85.17q-1.28 2.64-3.62 4.49t-6.27 1.85h-13.52l42.21-83.43q1.43-2.56 2.83-4.72 1.4-2.15 3.13-4.11h-52.24q-1.74 0-3.02-1.28-1.29-1.29-1.29-3.02zm98.53 32.16-9.81-1.74q1.13-7.85 4.38-13.78 3.24-5.92 8.11-9.89 4.87-3.96 11.18-5.96 6.3-2 13.55-2 7.55 0 13.63 2.15 6.07 2.15 10.38 5.97 4.3 3.81 6.6 8.94 2.31 5.14 2.31 11.1 0 5.21-1.17 9.17-1.17 3.97-3.36 6.91-2.19 2.95-5.44 4.98-3.25 2.04-7.32 3.4 9.81 3.1 14.64 9.44 4.84 6.34 4.84 15.93 0 8.15-3.02 14.42t-8.16 10.53q-5.13 4.27-11.89 6.46t-14.31 2.19q-8.23 0-14.34-1.89-6.12-1.89-10.65-5.59t-7.7-9.06-5.43-12.38l8.23-3.4q3.24-1.35 6.07-.71t4.12 3.05q1.36 2.65 2.98 5.21 1.62 2.57 3.89 4.57 2.26 2 5.32 3.25 3.06 1.24 7.29 1.24 4.75 0 8.3-1.54 3.55-1.55 5.93-4.04t3.55-5.55 1.17-6.16q0-3.92-.83-7.13t-3.48-5.47q-2.64-2.27-7.58-3.55-4.95-1.29-13.25-1.29v-13.28q6.87-.08 11.4-1.29t7.21-3.36 3.73-5.17q1.06-3.02 1.06-6.64 0-7.7-4.3-11.71-4.31-4-11.48-4-3.32 0-6.11.95-2.8.94-5.02 2.64-2.23 1.7-3.74 3.96-1.51 2.27-2.27 4.99-1.28 3.47-3.36 4.6-2.07 1.13-5.85.53m153.42 22.42q0 14.27-3.06 24.81-3.06 10.53-8.46 17.4-5.39 6.87-12.76 10.23-7.36 3.36-15.89 3.36t-15.82-3.36q-7.28-3.36-12.64-10.23t-8.38-17.4q-3.02-10.54-3.02-24.81 0-14.34 3.02-24.84 3.02-10.49 8.38-17.36t12.64-10.23q7.29-3.36 15.82-3.36t15.89 3.36q7.37 3.36 12.76 10.23 5.4 6.87 8.46 17.36 3.06 10.5 3.06 24.84m-19.25 0q0-11.85-1.74-19.63-1.74-7.77-4.64-12.38-2.91-4.6-6.69-6.45-3.77-1.85-7.85-1.85-4 0-7.74 1.85-3.73 1.85-6.6 6.45-2.87 4.61-4.57 12.38-1.7 7.78-1.7 19.63 0 11.86 1.7 19.63 1.7 7.78 4.57 12.39 2.87 4.6 6.6 6.45 3.74 1.85 7.74 1.85 4.08 0 7.85-1.85 3.78-1.85 6.69-6.45 2.9-4.61 4.64-12.39 1.74-7.77 1.74-19.63"/></svg>