<svg xmlns="http://www.w3.org/2000/svg" width="400" height="290" viewBox="0 0 400 290"><rect width="100%" height="100%" fill="#DDDDDD"/><path fill="#999999" d="M87.3 149.72h11.66v-12.54q0-1.77.24-3.92zm17.36 0h4.82v3.79q0 .53-.35.91-.34.39-.98.39h-3.49v9.35h-5.7v-9.35H82.79q-.66 0-1.16-.42-.51-.41-.64-1.02l-.69-3.31 18.16-24.25h6.2zm35.59-4.72q0 5.01-1.08 8.71-1.07 3.69-2.97 6.1-1.89 2.42-4.47 3.59-2.59 1.18-5.58 1.18-3 0-5.55-1.18-2.56-1.17-4.44-3.59-1.88-2.41-2.94-6.1-1.06-3.7-1.06-8.71 0-5.03 1.06-8.72 1.06-3.68 2.94-6.09t4.44-3.59q2.55-1.18 5.55-1.18 2.99 0 5.58 1.18 2.58 1.18 4.47 3.59 1.9 2.41 2.97 6.09 1.08 3.69 1.08 8.72m-6.76 0q0-4.16-.61-6.89t-1.63-4.35q-1.02-1.61-2.35-2.26-1.32-.65-2.75-.65-1.41 0-2.72.65t-2.32 2.26q-1 1.62-1.6 4.35t-.6 6.89.6 6.89 1.6 4.35q1.01 1.61 2.32 2.26t2.72.65q1.43 0 2.75-.65 1.33-.65 2.35-2.26 1.02-1.62 1.63-4.35t.61-6.89m37.5 0q0 5.01-1.08 8.71-1.07 3.69-2.97 6.1-1.89 2.42-4.47 3.59-2.59 1.18-5.58 1.18-3 0-5.55-1.18-2.56-1.17-4.44-3.59-1.88-2.41-2.94-6.1-1.06-3.7-1.06-8.71 0-5.03 1.06-8.72 1.06-3.68 2.94-6.09t4.44-3.59q2.55-1.18 5.55-1.18 2.99 0 5.58 1.18 2.58 1.18 4.47 3.59 1.9 2.41 2.97 6.09 1.08 3.69 1.08 8.72m-6.76 0q0-4.16-.61-6.89t-1.63-4.35q-1.02-1.61-2.35-2.26-1.32-.65-2.75-.65-1.41 0-2.72.65t-2.32 2.26q-1 1.62-1.6 4.35t-.6 6.89.6 6.89 1.6 4.35q1.01 1.61 2.32 2.26t2.72.65q1.43 0 2.75-.65 1.33-.65 2.35-2.26 1.02-1.62 1.63-4.35t.61-6.89m48.84 10.39-3.47 3.42-8.99-8.99-9.06 9.04-3.47-3.42 9.06-9.09-8.64-8.64 3.45-3.44 8.64 8.64 8.58-8.59 3.5 3.45-8.61 8.61zm31.9 2.68h9.84q1.06 0 1.68.59.62.6.62 1.58v3.92h-26.29v-2.17q0-.67.28-1.39.28-.73.89-1.32l11.63-11.66q1.46-1.48 2.61-2.83 1.16-1.35 1.92-2.68.77-1.32 1.18-2.69.41-1.36.41-2.87 0-1.38-.39-2.43-.4-1.04-1.13-1.76t-1.75-1.07q-1.02-.36-2.29-.36-1.17 0-2.16.33t-1.76.93q-.77.59-1.3 1.39-.53.79-.8 1.75-.45 1.22-1.16 1.61-.72.4-2.07.19l-3.44-.61q.39-2.76 1.53-4.84t2.85-3.47 3.92-2.09q2.22-.7 4.76-.7 2.65 0 4.85.78t3.76 2.21q1.57 1.43 2.44 3.45.87 2.01.87 4.48 0 2.12-.62 3.92t-1.67 3.44q-1.04 1.65-2.45 3.18-1.4 1.54-2.94 3.13l-8.64 8.82q1.25-.37 2.48-.57 1.23-.19 2.34-.19m23.32-20.73q0 3.21 1.66 4.89t4.7 1.68q1.59 0 2.84-.5 1.24-.5 2.09-1.38.85-.87 1.29-2.06.44-1.2.44-2.58 0-1.56-.48-2.79t-1.35-2.08q-.88-.85-2.08-1.3-1.21-.45-2.64-.45-1.48 0-2.68.49-1.19.49-2.04 1.36-.85.88-1.3 2.09-.45 1.2-.45 2.63m-3.2 26.82 11.9-14.87q.45-.55.84-1.08.4-.53.77-1.06-1.32.85-2.91 1.28-1.59.44-3.34.44-1.99 0-3.9-.69t-3.39-2.08-2.4-3.44q-.91-2.06-.91-4.81 0-2.57.95-4.83.96-2.25 2.68-3.95 1.72-1.69 4.13-2.67t5.33-.98q2.94 0 5.29.92 2.34.93 4 2.6 1.65 1.67 2.54 4 .89 2.34.89 5.12 0 1.77-.31 3.36-.3 1.59-.86 3.06-.55 1.47-1.35 2.88-.79 1.4-1.77 2.78l-8.78 12.51q-.45.64-1.35 1.07-.9.44-2.04.44zM319.7 145q0 5.01-1.07 8.71-1.07 3.69-2.97 6.1-1.89 2.42-4.48 3.59-2.58 1.18-5.57 1.18-3 0-5.56-1.18-2.55-1.17-4.43-3.59-1.89-2.41-2.95-6.1-1.06-3.7-1.06-8.71 0-5.03 1.06-8.72 1.06-3.68 2.95-6.09 1.88-2.41 4.43-3.59 2.56-1.18 5.56-1.18 2.99 0 5.57 1.18 2.59 1.18 4.48 3.59 1.9 2.41 2.97 6.09 1.07 3.69 1.07 8.72m-6.75 0q0-4.16-.61-6.89t-1.63-4.35q-1.02-1.61-2.35-2.26-1.32-.65-2.75-.65-1.41 0-2.72.65t-2.32 2.26q-1.01 1.62-1.6 4.35-.6 2.73-.6 6.89t.6 6.89q.59 2.73 1.6 4.35 1.01 1.61 2.32 2.26t2.72.65q1.43 0 2.75-.65 1.33-.65 2.35-2.26 1.02-1.62 1.63-4.35t.61-6.89"/></svg>